<svg width="20" height="21" xmlns="http://www.w3.org/2000/svg" xmlns:xlink="http://www.w3.org/1999/xlink" xml:space="preserve" overflow="hidden"><g transform="translate(-103 -272)"><path d="M20 10C20 15.5234 15.5234 20 10 20 4.47656 20 0 15.5234 0 10 0 4.47656 4.47656 0 10 0 15.5234 0 20 4.47656 20 10Z" fill="#A6CE39" transform="matrix(1 0 0 1.05 103 272)"/><path d="M1.39926 10.8681 0.193175 10.8681 0.193175 2.54009 1.39926 2.54009 1.39926 6.30364 1.39926 10.8681Z" fill="#FFFFFF" transform="matrix(1 0 0 1.05 108.241 275.766)"/><path d="M3.16925 2.54009 6.42725 2.54009C9.52861 2.54009 10.8913 4.74067 10.8913 6.70797 10.8913 8.84633 9.2075 10.8759 6.44292 10.8759L3.16925 10.8759 3.16925 2.54009ZM4.37533 9.795 6.29411 9.795C9.02739 9.795 9.65392 7.73439 9.65392 6.70797 9.65392 5.03617 8.58097 3.62094 6.23144 3.62094L4.37533 3.62094 4.37533 9.795Z" fill="#FFFFFF" transform="matrix(1 0 0 1.05 108.241 275.766)"/><path d="M1.58722 0.806061C1.58722 1.23374 1.2348 1.59143 0.796219 1.59143 0.357642 1.59143 0.00521308 1.23374 0.00521308 0.806061 0.00521308 0.370611 0.357642 0.0206959 0.796219 0.0206959 1.2348 0.0206959 1.58722 0.378386 1.58722 0.806061Z" fill="#FFFFFF" transform="matrix(1 0 0 1.05 108.241 275.766)"/></g></svg>